# xmcd
#
# Track frame offsets:
#	150
#	10237
#	22363
#	33668
#	45715
#	57018
#	70064
#	86057
#	102113
#	116160
#
# Disc length: 1816
#
# Revision: 1
# Processed by: cddbd v1.5.1PL0 Copyright (c) Steve Scherf et al.
# Submitted via: EasyCDDAExtractor 4.6.9.1
# Normalized: r0:TDELIM( - )
#
DISCID=8507160a
DTITLE=Various Artist - Country Classics Vol 2
DYEAR=2005
DGENRE=Country
TTITLE0=Roger Miller - King Of The Road
TTITLE1=Johnny Cash - I Walk The Line (Live)
TTITLE2=Patsy Cline - Walking After Midnight
TTITLE3=Loretta Lynn - Me and Bobby McGee
TTITLE4=Jolene Parsons - Don't It Make Your Brown Eyes Blue
TTITLE5=Don Seals - Galveston
TTITLE6=Glen Houston - Games People Play
TTITLE7=Johnny Cash - A Boy Named Sue (Live)
TTITLE8=Regina Gilbert - Don't Know Why
TTITLE9=Lesley King - You've Got A Friend
EXTD=
EXTT0=
EXTT1=
EXTT2=
EXTT3=
EXTT4=
EXTT5=
EXTT6=
EXTT7=
EXTT8=
EXTT9=
PLAYORDER=
